# xmcd
#
# Track frame offsets:
#	150
#	12737
#	28495
#	47995
#	64730
#	78490
#	95822
#	107550
#	121162
#	134057
#	152570
#	174125
#	188070
#	199345
#	202270
#
# Disc length: 2850 seconds
#
# Revision: 1
# Processed by: cddbd v1.5.1PL0 Copyright (c) Steve Scherf et al.
# Submitted via: audiograbber 1.83.01
#
DISCID=de0b200f
DTITLE=Various Artist - Volume 77 - February 1994
DYEAR=1994
DGENRE=Country
TTITLE0=Clint Black - A Good Run of Bad Luck
TTITLE1=Randy Travis - Before You Kill Us All
TTITLE2=Kiernan Kane - Find My Way Home
TTITLE3=Joe Diffie - In My Own Back Yard
TTITLE4=David Lee Murphy - In My Own Back Yard
TTITLE5=Lorrie Morgan - My Njght to Howl
TTITLE6=Pirates of the Mississippi - Save the Wild Life
TTITLE7=Jan Beard - Speakin' of the Devil
TTITLE8=John McEuen - The Balland of Jed Clampett
TTITLE9=Jamie O'Hara - The Cold Hard Truth
TTITLE10=Brooks and Dunn - Rock My World
TTITLE11=Larry Howard - Gone Fishin'
TTITLE12=Claire Lynch - Your Presence is My Favorite
TTITLE13=Dude Mowrey - National 4-H Club
TTITLE14=White River - The Wrong Spot Lot
EXTD=
EXTT0=
EXTT1=
EXTT2=
EXTT3=
EXTT4=
EXTT5=
EXTT6=
EXTT7=
EXTT8=
EXTT9=
EXTT10=
EXTT11=
EXTT12=
EXTT13=
EXTT14=
PLAYORDER=
